<svg class="main-svg" xmlns="http://www.w3.org/2000/svg" xmlns:xlink="http://www.w3.org/1999/xlink" width="700" height="500" style="" viewBox="0 0 700 500"><rect x="0" y="0" width="700" height="500" style="fill: rgb(0, 0, 0); fill-opacity: 0;"/><defs id="defs-2ebd02"><g class="clips"><clipPath id="clip2ebd02xyplot" class="plotclip"><rect width="483" height="300"/></clipPath><clipPath class="axesclip" id="clip2ebd02x"><rect x="95" y="0" width="483" height="500"/></clipPath><clipPath class="axesclip" id="clip2ebd02y"><rect x="0" y="100" width="700" height="300"/></clipPath><clipPath class="axesclip" id="clip2ebd02xy"><rect x="95" y="100" width="483" height="300"/></clipPath></g><g class="gradients"/></defs><g class="bglayer"><rect class="bg" x="91" y="96" width="491" height="308" style="fill: rgb(0, 0, 0); fill-opacity: 0; stroke-width: 0;"/></g><g class="layer-below"><g class="imagelayer"/><g class="shapelayer"/></g><g class="cartesianlayer"><g class="subplot xy"><g class="layer-subplot"><g class="shapelayer"/><g class="imagelayer"/></g><g class="gridlayer"><g class="x"/><g class="y"/></g><g class="zerolinelayer"/><path class="xlines-below"/><path class="ylines-below"/><g class="overlines-below"/><g class="xaxislayer-below"/><g class="yaxislayer-below"/><g class="overaxes-below"/><g class="plot" transform="translate(95, 100)" clip-path="url('#clip2ebd02xyplot')"><g class="scatterlayer mlayer"><g class="trace scatter tracee6d234" style="stroke-miterlimit: 2; opacity: 1;"><g class="fills"/><g class="errorbars"/><g class="lines"><path class="js-line" d="M2.39,240.6L7.17,240.6L11.96,239.15L26.3,231.84L31.08,228.41L40.65,222.02L45.43,218.92L64.56,204.35L69.34,200.2L74.12,195.06L78.91,188.6L88.47,175.15L93.25,165.93L107.6,144.84L112.38,138.77L121.95,122.82L126.73,119.07L131.51,110.43L136.29,107.93L141.07,106.08L145.86,91.98L150.64,92.17L155.42,87.49L160.2,86.57L164.99,83.54L169.77,77.28L174.55,84.13L179.33,60.87L184.11,71.61L188.9,71.87L193.68,65.15L198.46,74.38L203.24,75.5L208.02,69.63L212.81,57.37L217.59,65.74L222.37,48.67L227.15,61.59L231.94,38.46L236.72,58.63L241.5,48.81L246.28,56.78L251.06,49.66L255.85,48.02L260.63,35.56L265.41,49.2L270.19,29.03L274.98,34.64L279.76,32.86L284.54,40.24L289.32,38.59L294.1,31.74L298.89,34.17L303.67,19.34L308.45,14.8L313.23,17.83L318.01,33.19L322.8,25.8L327.58,32.72L332.36,29.82L337.14,8.93L341.93,32.26L346.71,21.59L351.49,16.58L356.27,28.51L361.05,24.62L365.84,24.42L370.62,23.69L375.4,19.41L380.18,15.85L384.97,18.75L389.75,18.29L394.53,8.4L399.31,8.01L404.09,19.94L408.88,23.1L413.66,20.99L418.44,17.3L423.22,15.32L428,17.76L432.79,23.63L437.57,13.15L442.35,9.33L447.13,13.41L451.92,16.38L456.7,14.27L461.48,8.01L466.26,17.56L471.04,3.13L475.83,16.31L480.61,0.03" style="vector-effect: non-scaling-stroke; fill: none; stroke: rgb(0, 0, 0); stroke-opacity: 1; stroke-width: 3px; opacity: 1;"/></g><g class="points"/><g class="text"/></g><g class="trace scatter traced959ce" style="stroke-miterlimit: 2; opacity: 1;"><g class="fills"/><g class="errorbars"/><g class="lines"><path class="js-line" d="M2.39,299.97L16.74,299.24L21.52,298.75L55,294.27L59.78,293.49L74.12,290.86L78.91,289.57L131.51,273.93L136.29,273.43L141.07,273.06L145.86,270.24L150.64,270.28L155.42,269.35L164.99,268.55L169.77,267.3L174.55,268.67L179.33,264.02L184.11,266.17L188.9,266.22L193.68,264.88L198.46,266.72L203.24,266.95L208.02,265.77L212.81,263.32L217.59,265L222.37,261.58L227.15,264.17L231.94,259.54L236.72,263.57L241.5,261.61L246.28,263.2L251.06,261.78L255.85,261.45L260.63,258.96L265.41,261.69L270.19,257.65L274.98,258.77L279.76,258.42L284.54,259.89L289.32,259.56L294.1,258.19L298.89,258.68L303.67,255.72L308.45,254.81L313.23,255.41L318.01,258.48L322.8,257.01L327.58,258.39L332.36,257.81L337.14,253.63L341.93,258.3L346.71,256.16L351.49,255.16L356.27,257.55L361.05,256.77L370.62,256.59L375.4,255.73L380.18,255.02L384.97,255.6L389.75,255.5L394.53,253.53L399.31,253.45L404.09,255.83L408.88,256.47L413.66,256.04L423.22,254.91L428,255.4L432.79,256.57L437.57,254.48L442.35,253.71L447.13,254.53L451.92,255.12L456.7,254.7L461.48,253.45L466.26,255.36L471.04,252.47L475.83,255.11L480.61,251.85" style="vector-effect: non-scaling-stroke; fill: none; stroke: rgb(0, 0, 0); stroke-opacity: 1; stroke-width: 3px; opacity: 1; stroke-dasharray: 3px, 3px;"/></g><g class="points"/><g class="text"/></g></g></g><g class="overplot"/><path class="xlines-above crisp" d="M90,404.5H583M90,95.5H583" style="fill: none; stroke-width: 1px; stroke: rgb(0, 0, 0); stroke-opacity: 1;"/><path class="ylines-above crisp" d="M90.5,96V404M582.5,96V404" style="fill: none; stroke-width: 1px; stroke: rgb(0, 0, 0); stroke-opacity: 1;"/><g class="overlines-above"/><g class="xaxislayer-above"><g class="xtick"><text text-anchor="middle" x="0" y="429" transform="translate(97.39,0)" style="font-family: sans-serif; font-size: 20px; fill: rgb(0, 0, 0); fill-opacity: 1; white-space: pre;">0</text></g><g class="xtick"><text text-anchor="middle" x="0" y="429" transform="translate(193.03,0)" style="font-family: sans-serif; font-size: 20px; fill: rgb(0, 0, 0); fill-opacity: 1; white-space: pre;">20</text></g><g class="xtick"><text text-anchor="middle" x="0" y="429" transform="translate(288.68,0)" style="font-family: sans-serif; font-size: 20px; fill: rgb(0, 0, 0); fill-opacity: 1; white-space: pre;">40</text></g><g class="xtick"><text text-anchor="middle" x="0" y="429" transform="translate(384.32,0)" style="font-family: sans-serif; font-size: 20px; fill: rgb(0, 0, 0); fill-opacity: 1; white-space: pre;">60</text></g><g class="xtick"><text text-anchor="middle" x="0" y="429" transform="translate(479.97,0)" style="font-family: sans-serif; font-size: 20px; fill: rgb(0, 0, 0); fill-opacity: 1; white-space: pre;">80</text></g><g class="xtick"><text text-anchor="middle" x="0" y="429" transform="translate(575.61,0)" style="font-family: sans-serif; font-size: 20px; fill: rgb(0, 0, 0); fill-opacity: 1; white-space: pre;">100</text></g></g><g class="yaxislayer-above"><g class="ytick"><text text-anchor="end" x="86" y="7" transform="translate(0,349.24)" style="font-family: sans-serif; font-size: 20px; fill: rgb(0, 0, 0); fill-opacity: 1; white-space: pre;">1000</text></g><g class="ytick"><text text-anchor="end" x="86" y="7" transform="translate(0,283.33000000000004)" style="font-family: sans-serif; font-size: 20px; fill: rgb(0, 0, 0); fill-opacity: 1; white-space: pre;">2000</text></g><g class="ytick"><text text-anchor="end" x="86" y="7" transform="translate(0,217.42000000000002)" style="font-family: sans-serif; font-size: 20px; fill: rgb(0, 0, 0); fill-opacity: 1; white-space: pre;">3000</text></g><g class="ytick"><text text-anchor="end" x="86" y="7" transform="translate(0,151.51)" style="font-family: sans-serif; font-size: 20px; fill: rgb(0, 0, 0); fill-opacity: 1; white-space: pre;">4000</text></g></g><g class="overaxes-above"/></g></g><g class="polarlayer"/><g class="ternarylayer"/><g class="geolayer"/><g class="funnelarealayer"/><g class="pielayer"/><g class="treemaplayer"/><g class="sunburstlayer"/><g class="glimages"/><defs id="topdefs-2ebd02"><g class="clips"/><clipPath id="legend2ebd02"><rect width="84" height="68" x="1" y="1"/></clipPath></defs><g class="layer-above"><g class="imagelayer"/><g class="shapelayer"/></g><g class="infolayer"><g class="legend" pointer-events="all" transform="translate(602.1500000000001, 115.00000000000001)"><rect class="bg" shape-rendering="crispEdges" width="85" height="69" x="0.5" y="0.5" style="stroke: rgb(255, 255, 255); stroke-opacity: 1; fill: rgb(0, 0, 0); fill-opacity: 0; stroke-width: 1px;"/><g class="scrollbox" transform="translate(0, 0)" clip-path="url('#legend2ebd02')"><g class="groups"><g class="traces" transform="translate(1, 20.5)" style="opacity: 1;"><text class="legendtext" text-anchor="start" x="40" y="7.8" style="font-family: sans-serif; font-size: 20px; fill: rgb(0, 0, 0); fill-opacity: 1; white-space: pre;">var1</text><g class="layers" style="opacity: 1;"><g class="legendfill"/><g class="legendlines"><path class="js-line" d="M5,0h30" style="fill: none; stroke: rgb(0, 0, 0); stroke-opacity: 1; stroke-width: 3px;"/></g><g class="legendsymbols"><g class="legendpoints"/></g></g><rect class="legendtoggle" x="0" y="-14.5" width="78.90625" height="29" style="fill: rgb(0, 0, 0); fill-opacity: 0;"/></g><g class="traces" transform="translate(1, 49.5)" style="opacity: 1;"><text class="legendtext" text-anchor="start" x="40" y="7.8" style="font-family: sans-serif; font-size: 20px; fill: rgb(0, 0, 0); fill-opacity: 1; white-space: pre;">var2</text><g class="layers" style="opacity: 1;"><g class="legendfill"/><g class="legendlines"><path class="js-line" d="M5,0h30" style="fill: none; stroke: rgb(0, 0, 0); stroke-opacity: 1; stroke-dasharray: 3px, 3px; stroke-width: 3px;"/></g><g class="legendsymbols"><g class="legendpoints"/></g></g><rect class="legendtoggle" x="0" y="-14.5" width="78.90625" height="29" style="fill: rgb(0, 0, 0); fill-opacity: 0;"/></g></g></g><rect class="scrollbar" rx="20" ry="3" width="0" height="0" x="0" y="0" style="fill: rgb(128, 139, 164); fill-opacity: 1;"/></g><g class="g-gtitle"><text class="gtitle" x="350" y="50" text-anchor="middle" dy="0.7em" style="font-family: sans-serif; font-size: 20px; fill: rgb(0, 0, 0); opacity: 1; font-weight: normal; white-space: pre;"><tspan style="font-weight:bold">fig1</tspan></text></g><g class="g-xtitle"><text class="xtitle" x="336.5" y="462.5" text-anchor="middle" style="font-family: sans-serif; font-size: 20px; fill: rgb(0, 0, 0); opacity: 1; font-weight: normal; white-space: pre;">Time intervals</text></g><g class="g-ytitle" transform="translate(6,0)"><text class="ytitle" transform="rotate(-90,12.5,250)" x="12.5" y="250" text-anchor="middle" style="font-family: sans-serif; font-size: 20px; fill: rgb(0, 0, 0); opacity: 1; font-weight: normal; white-space: pre;">Values</text></g></g></svg>